<?xml version="1.0" standalone="no"?>
<!DOCTYPE svg PUBLIC "-//W3C//DTD SVG 20010904//EN"
 "http://www.w3.org/TR/2001/REC-SVG-20010904/DTD/svg10.dtd">
<svg version="1.0" xmlns="http://www.w3.org/2000/svg"
 width="119.500000pt" height="113.430471pt" viewBox="0 0 119.500000 113.430471"
 preserveAspectRatio="xMidYMid meet">
<metadata>
Created by potrace 1.12, written by Peter Selinger 2001-2015
</metadata>
<g transform="translate(-60.500000,166.922879) scale(0.100000,-0.100000)"
fill="#000000" stroke="none">
<path d="M1318 1656 c-151 -41 -215 -216 -127 -349 89 -135 319 -130 404 8 26
42 30 58 30 119 -1 116 -54 190 -161 222 -56 17 -84 17 -146 0z m143 -109 c42
-28 59 -60 59 -113 0 -57 -34 -105 -88 -124 -37 -13 -47 -13 -84 0 -75 26
-111 119 -75 190 18 37 74 70 117 70 22 0 51 -9 71 -23z"/>
<path d="M1724 1662 c-20 -13 -32 -47 -23 -69 8 -21 45 -40 56 -29 4 3 -1 6
-10 6 -9 0 -23 10 -31 22 -18 25 -6 54 27 68 13 5 16 9 7 9 -8 0 -20 -3 -26
-7z"/>
<path d="M643 1645 c-7 -8 -13 -28 -13 -44 l0 -30 106 -3 107 -3 -107 -132
c-100 -124 -106 -133 -106 -177 l0 -46 175 0 175 0 0 50 0 49 -105 3 -105 3
105 130 c96 119 105 134 105 173 l0 42 -162 0 c-128 -1 -166 -4 -175 -15z"/>
<path d="M1778 1650 c6 -8 12 -23 12 -35 0 -12 -6 -27 -12 -35 -11 -12 -10
-12 5 -1 9 7 17 24 17 36 0 12 -8 29 -17 36 -15 11 -16 11 -5 -1z"/>
<path d="M1731 1613 c0 -16 3 -22 6 -15 3 8 9 10 16 3 9 -6 12 -2 13 15 1 17
-3 24 -17 24 -14 0 -19 -7 -18 -27z"/>
<path d="M790 1118 c6 -7 11 -21 11 -32 1 -21 1 -21 6 -1 3 11 10 27 17 35 9
13 9 13 -5 3 -10 -8 -19 -9 -27 -3 -9 7 -9 7 -2 -2z"/>
<path d="M1116 1114 c-3 -9 -4 -19 -1 -22 3 -3 5 1 5 9 0 11 2 11 10 -1 5 -8
10 -10 10 -5 0 6 -4 16 -9 23 -6 11 -10 10 -15 -4z"/>
<path d="M1582 1100 c0 -19 2 -27 5 -17 2 9 2 25 0 35 -3 9 -5 1 -5 -18z"/>
<path d="M1420 1086 c0 -2 11 -6 25 -8 14 -3 25 -1 25 3 0 5 -11 9 -25 9 -14
0 -25 -2 -25 -4z"/>
<path d="M791 989 c-66 -13 -127 -53 -158 -107 -24 -39 -28 -58 -28 -118 0
-61 4 -77 30 -120 64 -104 207 -140 323 -81 28 15 52 31 52 35 0 5 -15 23 -34
41 l-33 32 -34 -20 c-90 -55 -199 9 -199 116 0 50 32 101 75 119 46 19 73 18
120 -6 l39 -20 33 32 c18 18 33 35 33 39 0 12 -102 57 -140 61 -19 3 -55 1
-79 -3z"/>
<path d="M1343 989 c-132 -24 -210 -136 -188 -268 34 -203 330 -255 440 -77
26 43 30 59 30 121 0 62 -4 78 -30 120 -50 81 -151 122 -252 104z m102 -103
c95 -40 99 -192 6 -241 -119 -61 -242 77 -171 193 34 55 100 75 165 48z"/>
</g>
</svg>
