<?xml version="1.0" encoding="UTF-8" standalone="no"?>
<svg
   xmlns:dc="http://purl.org/dc/elements/1.1/"
   xmlns:cc="http://creativecommons.org/ns#"
   xmlns:rdf="http://www.w3.org/1999/02/22-rdf-syntax-ns#"
   xmlns:svg="http://www.w3.org/2000/svg"
   xmlns="http://www.w3.org/2000/svg"
   viewBox="0 0 2933.3333 1954.6667"
   height="1954.6667"
   width="2933.3333"
   xml:space="preserve"
   id="svg2"
   version="1.1"><metadata
     id="metadata8"><rdf:RDF><cc:Work
         rdf:about=""><dc:format>image/svg+xml</dc:format><dc:type
           rdf:resource="http://purl.org/dc/dcmitype/StillImage" /></cc:Work></rdf:RDF></metadata><defs
     id="defs6" /><g
     transform="matrix(1.3333333,0,0,-1.3333333,0,1954.6667)"
     id="g10"><g
       transform="scale(0.1)"
       id="g12"><g
         transform="scale(1.34969)"
         id="g14"><path
           id="path16"
           style="fill:#ffffff;fill-opacity:1;fill-rule:nonzero;stroke:none"
           d="M 16300,10861.7 V 0 H 0 v 10861.7 h 16300" /></g><path
         id="path18"
         style="fill:#283a7c;fill-opacity:1;fill-rule:nonzero;stroke:none"
         d="m 8377.8,12357.2 c -53.2,-315.2 -272.5,-590.6 -515.1,-786.7 -259.8,-210 -588.1,-365.8 -929.7,-320.5 -543.9,71.9 -860.8,586.6 -1259.2,903.2 -236,187.5 -511.4,286.1 -815,241.5 -360.9,-52.9 -674.6,-252.8 -972.2,-451.1 -285.9,-190.4 -580.9,-396 -919.9,-477.8 -276,-66.6 -588.9,-53.8 -839.5,90.2 -125.5,72 -229.1,178.1 -297.4,305.8 -74.5,139.5 -108.3,295.1 -134,449.8 -26.3,158 -45,318.4 -94.2,471.4 -46.6,144.8 -127.5,271.9 -239.7,374.7 -225.6,206.7 -541.9,293.3 -842.9,267.8 -180.602,-15.3 -355.199,-68.4 -519,-146.1 v 130.6 c 272.301,118.2 572.699,173.1 867.5,117.4 288.2,-54.4 562.2,-213.4 728.7,-458.1 180,-264.5 177.5,-591.4 247.4,-892.2 34,-146.2 88.4,-289.9 193.6,-400.1 94.2,-98.7 217,-162.5 348.1,-197 677.4,-177.9 1231,366.6 1770.3,676.1 299.5,171.9 648.6,306.4 999.5,260.9 273.6,-35.5 503.5,-185.2 705.6,-365.2 375.1,-334.1 741.4,-865.3 1313.3,-781.8 324.8,47.4 624.5,260.6 832.8,506.7 181.9,214.8 349.7,547.2 217.6,827.3 -134.4,285.1 -488.9,358.7 -764,433.5 -379.5,103.2 -759.5,205.1 -1142.9,293 -765.7,175.8 -1542.7,287.6 -2329.9,247.4 -364.1,-18.5 -737.2,-51.1 -1094.8,40.3 -324.9,83 -596.9,279.1 -836.3,507.4 -145.9,139.1 -280.8,289.3 -420.7,434.4 h 161.5 c 206.4,-218.5 410.6,-440.5 658.1,-609.5 141.4,-96.5 294.7,-171 460.6,-214.4 180.3,-47.2 366.9,-59.7 552.7,-59.2 188.3,0.5 376.3,14.4 564.3,23.3 196.4,9.3 392.8,10.2 589.2,1.7 796.2,-34.4 1578.6,-208.1 2347.2,-408.7 193.3,-50.5 386,-102.7 578.7,-155.2 150.2,-40.9 301.5,-82.8 441.3,-152.7 132.4,-66.3 253.5,-163 325.3,-294.7 72.7,-133.4 88.2,-285.1 63.1,-433.4" /><path
         id="path20"
         style="fill:#ed166f;fill-opacity:1;fill-rule:nonzero;stroke:none"
         d="m 10945.1,12900.3 c -130.1,169.6 -193.3,392 -169.5,604.8 28,250.9 182.4,436.4 319.9,637.5 109.1,159.6 175.8,326.5 174.7,517.4 h 119.2 c 1.7,-140.1 -26.5,-280.2 -89.8,-409.8 -108.4,-221.8 -309.2,-395.7 -380.8,-636 -63.4,-212.9 -17.4,-451.8 112.9,-630.6 136,-186.8 364.8,-281.6 592.7,-272.6 229.6,9.1 430.2,131.1 561.8,316.7 291.8,411.6 263.7,948.6 456.4,1401.1 35.1,82.2 77.7,159.6 127.8,231.2 h 148.1 c -295.6,-358.2 -294.3,-863.8 -435,-1290 -70.7,-213.9 -175.8,-427.1 -348.5,-577.1 -168.9,-146.6 -390.1,-218.9 -613.3,-199.4 -226.4,19.8 -437.3,125.3 -576.6,306.8" /><path
         id="path22"
         style="fill:#ed166f;fill-opacity:1;fill-rule:nonzero;stroke:none"
         d="m 16024.8,14138.8 c -18.4,-480.9 -421.6,-864.4 -862.6,-992.7 -261.7,-76.1 -539.8,-80.2 -808.8,-48.4 -142.2,16.8 -283,42.6 -422.6,74.3 -145.1,33 -290.4,72.7 -439.9,78.2 -227.9,8.4 -467.3,-83.4 -530.6,-321.5 -39.1,-147.1 3.5,-277.7 50.3,-416.9 109.2,-324.8 126.1,-695.8 -38.2,-1005.9 -176.9,-334.1 -534.1,-507.4 -892.9,-572.2 -426.1,-77.1 -881.8,-40.3 -1251.4,201.4 -255.1,166.9 -452.4,413.5 -578,689.9 -100,220 -121.5,452.8 -135,691.3 -14.3,252.8 -31.3,510.1 -165.4,732.2 -220.1,364.5 -651.6,541.1 -1053.5,613.7 -541.5,97.9 -1096.5,-1.8 -1642.1,40.1 -140.5,10.8 -280.8,29.9 -418,62.4 -112.7,26.7 -226.7,61.6 -325.2,124.2 -92.3,58.7 -173.1,144.3 -198.4,253.7 -25.6,111 5.8,225.3 69.3,317.4 h 157.5 c -23.4,-21.3 -44.5,-45.4 -62.3,-72.6 -62.2,-95.1 -75.7,-213 -4.4,-307.3 60.5,-80 159.3,-127.8 251.9,-159.5 263.5,-90.2 550.3,-107.7 826.7,-109.7 281.2,-2.1 562.2,15.7 843.5,12.6 436.4,-4.7 889.9,-78.1 1263.2,-318.7 169.1,-109 317.6,-252.9 415.3,-430.1 122.7,-222.5 145.7,-474.5 159.9,-723.7 13.2,-230 27.7,-463.3 123.7,-672.3 55.2,-120 123.4,-235.3 205.6,-338.8 219.5,-276 527.8,-455 877,-507.1 230.4,-34.4 472.5,-17 698.9,35.2 184.9,42.5 369.3,114.3 516.5,236.9 242.8,202 334.1,498.9 317.9,807.1 -9,171 -68.1,323.3 -116.4,485.2 -47.1,157.4 -44.7,324.5 28.7,474.3 98.7,201.3 336,294.2 548.4,299.2 146.9,3.4 292.7,-28.2 435,-61.1 136.5,-31.6 273,-61.9 411.7,-82.2 497.9,-72.9 1052.6,-19.2 1401.2,383.7 144.4,166.9 237.3,383.7 222.4,606.8 -11,165.5 -85,316.9 -190.3,442.1 h 151 c 105.5,-148.6 167.9,-324.1 160.4,-521.2" /><g
         transform="scale(1.23848)"
         id="g24"><path
           id="path26"
           style="fill:#f5c209;fill-opacity:1;fill-rule:nonzero;stroke:none"
           d="m 15165.9,10976.6 c -13.8,287.2 -3.7,574.8 27.9,860.4 h 96.5 c -32.6,-288 -41.4,-578.9 -27.1,-868.4 8,-162 20.3,-325.8 46.6,-486 18.4,-111.5 47.3,-229.9 115.9,-322 65.1,-87.6 171.8,-132.9 278.1,-97.9 109.6,36 190.9,141.9 233.7,244.7 56.3,134.7 44,284.7 24.6,426 -21.4,155.6 -54.7,311.9 -45.6,469.8 13.4,233.4 110.9,452.8 255.8,633.8 h 127.7 c -57.7,-62.5 -109,-131.2 -152.4,-206 -65.3,-112.5 -111.6,-237.2 -128.6,-366.6 -19.9,-151.7 6.5,-303.3 29,-453.2 21.7,-144.8 43.8,-297.3 10.7,-442.2 -26.9,-117.4 -90.7,-232.3 -181.3,-312.4 -86.1,-76.18 -196.5,-118.89 -311.6,-97.01 -110.4,21.08 -197.4,100.41 -251.8,195.61 -57.9,101.6 -86,218.7 -102.4,333.6 -23.2,161.6 -37.9,324.7 -45.7,487.8" /></g><g
         transform="scale(1.34969)"
         id="g28"><path
           id="path30"
           style="fill:#f5c209;fill-opacity:1;fill-rule:nonzero;stroke:none"
           d="m 15381.7,8973.3 c -64.5,-228.87 -50.1,-481.74 55.6,-696.38 102.2,-207.6 276.7,-374.83 486.2,-472.18 107.3,-49.87 221.5,-75.5 338.7,-86.99 12.5,-1.25 25.1,-2.37 37.8,-3.55 v -88.62 c -94.5,9.19 -188.3,19.49 -279.8,47.57 -110.3,33.86 -215.5,85.8 -309.5,152.7 -186.1,132.62 -331.9,320 -404.3,537.61 -75.2,226.12 -68.1,479.36 11.9,703.19 39.9,111.81 97,215.98 170.7,309.04 80.2,101.06 180,183.52 283,260.43 189,141.21 387.9,267.46 528,459.48 v -140.67 c -139.5,-155.37 -314.7,-269.69 -483.1,-395.65 -102.4,-76.46 -202.2,-160.92 -278.5,-264.35 -71.3,-96.69 -124.1,-206.05 -156.7,-321.63" /></g><g
         transform="scale(1.34969)"
         id="g32"><path
           id="path34"
           style="fill:#f5c209;fill-opacity:1;fill-rule:nonzero;stroke:none"
           d="m 16300,6721.6 v -92.32 c -264.4,-71.72 -545.7,-57.49 -814.5,-20.52 -542.8,74.54 -1122.1,271.69 -1662,75.06 -228.4,-83.21 -404.7,-249.4 -589.1,-401.13 -174.2,-143.44 -367.3,-278.29 -599.1,-297.55 -223.2,-18.52 -456.8,81.2 -600.5,252.5 -146.5,174.63 -190.1,413.28 -126.2,631.11 67.6,230.12 244.8,394.9 471.4,466.25 256.9,80.83 528.3,46.68 790.2,16.23 271.5,-31.57 566.8,-60.76 813.3,82.31 185.3,107.51 330.9,311.33 262.6,532.49 -60.4,196.27 -262.3,318.59 -452.3,362.68 -252.9,58.6 -514,-33.19 -744.3,-132.55 -260.7,-112.4 -513.9,-240.35 -794.2,-298.29 -261.4,-54.09 -536.9,-51.12 -785.2,54.38 -212.7,90.39 -399.1,251.76 -489.3,467.66 -82.5,197.6 -70.8,456.7 85.8,615.92 185.4,188.42 469.1,139.52 704.2,111.8 293.9,-34.52 591.8,-15.63 877.9,60.61 199,53.05 518.6,163.08 469.4,429.43 -47.4,256.43 -320.5,379.23 -490.9,543.63 -83.1,80.2 -151.5,178.2 -176.5,292.4 -23.1,105.4 -12.3,216.4 24.2,317.4 8.8,24.2 18.7,47.8 29.8,70.6 h 99.3 c -22.5,-39.8 -41,-82.6 -54.6,-127.9 -29.6,-99.2 -31.4,-206.2 7.2,-303.4 43.6,-109.5 133.6,-192.1 223.3,-264.5 183.5,-148.1 426.9,-307.96 431.3,-572.39 4.2,-249.24 -239.3,-379.64 -445.6,-444.1 -277,-86.39 -571.3,-121.66 -860.8,-103.06 -133.1,8.52 -264.6,33.57 -397.9,39.2 -119.4,4.96 -246.7,-7.04 -344.4,-82.84 -175.3,-136.03 -173.7,-404.68 -82.3,-587.76 102.3,-204.94 301.3,-347.93 516.8,-415.28 265.2,-82.91 550.8,-49.94 812.6,29.49 267.8,81.2 511.8,220.64 774.2,315.85 226.3,82.09 471.9,126.77 705.7,49.19 191.6,-63.64 373.9,-198.04 439.6,-395.86 71.2,-214.13 -30.1,-435.66 -199.1,-571.32 -450.7,-361.93 -1032.8,-79.35 -1546.6,-139.59 -235.3,-27.56 -456.2,-138.1 -559,-360.74 -91.5,-198.42 -71.8,-446.18 66.6,-618.14 136.3,-169.53 368.3,-265.99 584.7,-229.54 225.6,38.01 405.9,190.12 575.5,333.12 185.5,156.47 371.5,304.29 607.1,376.97 252.1,77.79 522.5,76.98 782.4,48.01 287.2,-32.01 568.4,-100.54 854.3,-140.7 265.2,-37.19 545.2,-50.53 805,25.19" /></g><path
         id="path36"
         style="fill:#61ccee;fill-opacity:1;fill-rule:nonzero;stroke:none"
         d="m 12011.2,9980.2 c -238.9,178.5 -514.6,273 -809.5,304.4 -607.4,64.2 -1161.2,381.1 -1521.8,873.8 -169,230.9 -477.9,400.6 -762.8,281.6 -257.3,-107.5 -362.9,-386.2 -457.2,-627.2 -100.1,-255.9 -229.3,-485.3 -425.2,-680.9 -191.2,-190.9 -424.5,-341.2 -676.8,-437.7 -253.1,-96.8 -524.3,-142.7 -795,-125.3 -307,19.6 -587.5,138.7 -864.7,263.4 -290.1,130.6 -589.5,270.5 -913.1,281.9 -291.4,10.2 -556.8,-105.6 -801.9,-252.5 -236,-141.6 -460.2,-315.2 -719.7,-412.8 -265.1,-99.6 -534.3,-81.3 -786.2,47.6 -260.4,133.3 -478.2,334.6 -712.8,506.3 -259,189.5 -543,322.6 -860.602,378.2 -299.199,52.2 -603.5,45.3 -903.898,8.4 v -119.6 c 76.8984,9.5 153.898,16.9 231,22 327,21.7 660,-1.4 970.4,-112.9 285.7,-102.7 520.5,-291.3 757.2,-475.3 217.8,-169.3 447.3,-343.1 719.5,-411.9 269.7,-68.3 536.4,-8.5 780.9,113.1 246.4,122.6 465.1,292.8 707,423.1 117.1,63.1 239.8,116.1 370.2,144.7 146.2,32.2 298,27.7 444.2,-2.2 314.1,-64.3 599.3,-222 892.6,-344.8 265,-110.9 537.2,-183.6 826.2,-180.3 533.2,6.2 1061.9,235.9 1434.8,616.3 190.7,194.6 324.6,421.9 424,674.1 87.6,222.5 181.8,527.8 438.2,606 136.4,41.7 280.3,2.1 397.8,-72.2 127,-80.3 200.7,-205 295.2,-317.5 189.7,-226.1 427.1,-413.1 690,-546.9 257.3,-130.9 535.7,-210.2 822.5,-240.5 296.7,-31.6 573.8,-139.8 804,-331.6 210.8,-175.8 378.4,-406.4 471.9,-665.2 94.4,-261.4 111,-543 40,-812.3 -70.3,-266.8 -217.3,-510.7 -415.1,-702.4 -197.3,-191.2 -445,-326.5 -715.7,-377.6 -329.4,-62.1 -668.3,-14.6 -1000.1,-4.2 -318.7,10.1 -647.6,-15 -927.3,-182.9 -265.9,-159.5 -454.9,-411.2 -657.4,-639.6 -407.5,-459.6 -970,-802.7 -1593.8,-843.1 -291.3,-18.8 -583.3,30.6 -845.4,161.4 -247.2,123.4 -466.5,307.7 -622.6,536.4 -152.5,223.3 -244,486 -239.8,757.9 5.1,337.7 138.1,681.2 42.3,1016.6 -159.1,557.4 -833.1,666.6 -1324.6,571 -344.7,-67 -671.5,-205.6 -1018.2,-263.5 -351.4,-58.8 -699.3,5.3 -1033.7,116.2 C 1510.2,8719 860.199,9114.4 143,9031.8 94.6016,9026.2 47,9018.3 0,9008.1 V 8886 c 61,14.6 123.199,24.8 186.398,30.2 359.204,30.8 716.5,-64.1 1051.402,-185.3 338.4,-122.4 664.3,-277.8 1009.7,-380.6 346.5,-103.2 698.2,-138.4 1054.6,-67.7 580.5,115.3 1218.3,470.3 1798.6,155 110.1,-59.7 205.3,-143.5 268.2,-252.8 82.2,-143.1 95.1,-309.1 84.2,-470.7 -12.1,-177.6 -50,-352.3 -65.9,-529.6 -13.2,-147.2 -5.9,-294.2 26.8,-438.6 125.4,-552.8 585,-997.9 1113.3,-1176.3 592.7,-200.1 1256.1,-42.9 1771.3,285.7 270.3,172.4 489.9,393.2 697.8,634.8 204.4,237.4 418.1,483.6 723.6,588 318.5,108.8 663.2,74.6 992.9,57.1 320.1,-17.1 650.8,-23.3 954.1,96.2 524.2,206.4 923.2,705.8 1000.8,1265.2 79.6,572.9 -199.9,1142.4 -656.6,1483.6" /><path
         id="path38"
         style="fill:#61ccee;fill-opacity:1;fill-rule:nonzero;stroke:none"
         d="m 10586.4,8381 c -295.6,-283.2 -744.8,-235 -1119.9,-251.9 -193,-8.8 -380.9,-39.3 -562,-107.5 -158.7,-59.8 -309.2,-138.7 -456.1,-222.9 -292,-167.4 -578.3,-365.9 -907.4,-453.4 -158.3,-42.1 -329.7,-57.5 -490.1,-17.9 -155.1,38.2 -309.8,131.3 -363.4,290 -52.9,156.5 -2,325 84.8,459.1 101.6,156.9 257.3,259.4 422.4,340.5 177,86.8 363.9,151.3 542.1,235.5 76.8,36.3 155.6,68.1 233.1,102.9 252.9,113.5 497.6,249 708.7,430.4 120.9,103.9 229.1,223.8 314.5,358.8 34.5,54.4 58.2,125.1 131,134.8 86.2,11.4 117.3,-66.3 159.3,-124.5 101.5,-140.8 237.9,-250.6 397.5,-319.2 155.7,-66.9 318.1,-87.7 485.6,-101.1 156,-12.5 339.9,-20.6 461.9,-132.2 119.8,-109.6 130.6,-280.8 80.2,-427.2 -25.3,-73.3 -67.8,-139.3 -122.2,-194.2 z m 7,787.4 c -162.6,77.6 -347,77.4 -522.8,94.3 -178.4,17.3 -351.3,66.7 -499.4,170.7 -74.9,52.7 -141.4,120.1 -193.6,195.3 -50.1,72.2 -89.7,142.9 -182,164.6 -74.7,17.7 -154,-1.7 -212,-52 -61.2,-53.1 -93.6,-139.8 -140.7,-205 -186.3,-258 -460.1,-442.1 -740,-585 -236.6,-120.8 -485.5,-224.8 -730.8,-325.9 -350.8,-144.6 -735.1,-345.2 -814,-755.1 -33.8,-175.2 8.8,-354.8 136.2,-483.5 126.3,-127.5 308.1,-187.5 483.8,-199.5 359.1,-24.6 695,138.5 997.8,312.6 314,180.6 623.3,393.6 982.4,472.7 425.3,93.7 877.3,-20.2 1284.8,167.9 84.2,38.9 161.1,91.5 228.1,155.7 1.8,1.7 3.5,3.5 5,5.3 238.2,245.8 262,702.5 -82.8,866.9" /><g
         transform="scale(1.34969)"
         id="g40"><path
           id="path42"
           style="fill:#ed166f;fill-opacity:1;fill-rule:nonzero;stroke:none"
           d="m 16300,5008.92 v -89.06 c -56.7,8 -113.6,14.59 -170.6,19.86 -328.2,30 -660.8,17.41 -985.3,-40.01 -328.7,-58.16 -642.3,-163.82 -945.1,-303.18 -307.9,-141.67 -612.2,-292.96 -951.9,-339.41 -340.4,-46.46 -683.2,-8.45 -1023.1,22.22 -329.1,29.71 -677.1,62.02 -1001.2,-20.37 -139.8,-35.49 -276.3,-97.21 -374,-206.35 -80.7,-90.16 -121.1,-220.49 -104.1,-340.59 18.6,-131.73 111.5,-225.01 240.2,-253.47 142,-31.41 293.4,3.56 435,20.53 332.9,39.93 654.2,-42.09 937.6,-218.05 265.3,-164.71 500.4,-386.09 799,-491.82 312,-110.47 649.8,-95.28 968.9,-25.12 674.2,148.41 1268.9,536.94 1948.2,667.05 74.8,14.3 150.5,25.41 226.4,32.45 v -88.17 c -554,-50.83 -1076,-330.74 -1590.1,-525.08 -310,-117.22 -634.4,-212.12 -967.1,-228.5 -159,-7.85 -319.8,4 -474.7,41.49 -155.1,37.56 -300.7,103.29 -436.4,186.64 -263,161.44 -494.9,381.42 -787.9,490.18 -159.1,59.05 -328.8,86.76 -498.4,80.47 -149.3,-5.56 -296,-42.61 -445.5,-42.09 -134.4,0.52 -273.7,38.31 -361.1,147.15 -79.3,98.76 -98.8,229.08 -78,351.48 48.9,286.81 321,441.51 583.6,498.19 669.8,144.55 1352.4,-112.47 2025,-5.78 337.2,53.49 638.1,212.86 945.7,351.49 300,135.21 612.5,235.31 937.4,289.84 379.1,63.65 767.3,69.87 1147.5,18.01" /></g><g
         transform="scale(1.34969)"
         id="g44"><path
           id="path46"
           style="fill:#ed166f;fill-opacity:1;fill-rule:nonzero;stroke:none"
           d="m 16300,5834.81 v -91.8 c -53,12.15 -106.2,23.78 -159.4,34.82 -348.1,71.87 -703.5,116.55 -1059.5,102.32 -344.5,-13.78 -689.3,-86.46 -1019.7,-182.71 -322.3,-93.8 -632.3,-221.31 -925.9,-384.01 -236.8,-131.22 -491.5,-246.95 -759.8,-293.99 -209.1,-36.75 -425.4,-28.38 -620.4,61.34 -196.5,90.47 -345.2,258.21 -449.3,444.47 -66.9,119.44 -114.8,247.25 -160.1,376.09 -46.1,131.14 -91.5,264.8 -168.1,381.94 -73.2,111.73 -177.8,197.16 -306.3,236.28 -131,39.78 -272.7,33.71 -401.6,-10.67 -265.6,-91.43 -432.11,-356.6 -457.52,-628.74 -29.49,-315.85 151.29,-589.02 195.62,-893.39 20.8,-142.77 5.5,-285.17 -59.22,-415.13 -57.94,-116.4 -150.11,-212.05 -252.5,-290.36 -225.91,-172.63 -498.34,-250.87 -757.95,-356.3 -262.58,-106.62 -522.2,-259.47 -625.85,-538.72 -105.58,-284.29 -48.01,-597.54 107.06,-851.82 151.07,-247.61 383.57,-452.77 646.52,-574.65 239.91,-111.28 534.12,-162.93 785.29,-57.64 259.55,108.83 377.75,368.89 532.15,584.8 75.9,106.09 163.8,205.67 277.7,272.06 125.8,73.35 273.9,102.17 418.5,95.35 667.6,-31.34 1022.8,-668.59 1534.6,-998.52 128.1,-82.54 267.6,-148.03 418.1,-176.19 158.4,-29.71 320.5,-8.81 472.7,40.97 320.7,105.07 582.3,326.97 857.5,513.6 272.4,184.71 567.4,313.11 890.2,378.98 318.2,64.83 644.7,77.2 968.6,70.24 26.2,-0.6 52.4,-1.41 78.6,-2.45 v -88.83 c -63,2.07 -126,3.55 -189,3.92 -325.8,2.15 -654.4,-18.3 -970.9,-100.09 -156.4,-40.38 -309,-95.58 -452.8,-169.45 -151,-77.5 -290.4,-174.63 -428.3,-272.88 -269.3,-191.75 -548.4,-394.83 -880.4,-457.66 -156.7,-29.71 -316.5,-23.56 -469.5,22.16 -148.3,44.23 -285.7,120.17 -411.2,209.53 -261.3,186.11 -470.6,431.72 -719,633.1 -234.1,189.75 -527.1,339.34 -837.2,299.92 -141.3,-17.93 -268.2,-82.02 -368.4,-182.71 -94.5,-95.06 -164.1,-210.71 -236.7,-322.37 -72.8,-111.87 -149.8,-224.94 -252.2,-312.07 -102.73,-87.5 -226.9,-146.4 -359.6,-171 -275.39,-51.12 -563.09,26.67 -803.66,161.59 -501.74,281.48 -916.95,901.54 -690.31,1486.64 227.46,587.17 934.66,589.54 1386.32,911.91 105.58,75.42 199.82,170.78 257.17,288.29 65.27,133.88 64.53,283.84 32.15,426.46 -35.49,156.33 -99.43,304.22 -142.32,458.4 -39.87,143.15 -55.35,287.85 -33.12,435.29 41.41,275.4 212.79,530.71 474.67,638.07 255,104.62 568.7,62.46 762.7,-141.37 195.8,-205.67 240.4,-499.74 354.8,-749.8 92,-201.3 224.5,-392.23 421.5,-502.26 431.3,-240.94 967.8,-5.26 1356.9,210.57 296.1,164.18 611.2,292.28 936.2,386.9 328.9,95.73 672.4,167.82 1015.1,184.56 421,20.52 837.2,-39.71 1247.1,-132.99" /></g><path
         id="path48"
         style="fill:#283a7c;fill-opacity:1;fill-rule:nonzero;stroke:none"
         d="M 3197.2,2644.6 C 3370,2439.3 3445.5,2173.2 3381.1,1910.1 3328.2,1693.7 3189.2,1512 3034.7,1356.9 2867.1,1188.6 2678,1043.9 2505.8,880.5 2340,723.102 2181.2,542 2114,318.801 2082.2,213 2072.3,105.602 2080.9,0 h -119.3 c -2.4,31.3008 -3.3,62.8008 -2.7,94.3984 4.8,256.1016 117.1,483.8006 278.4,677.4996 156.1,187.5 348.6,340.102 530.8,500.802 169.7,149.5 342.1,309.9 442.5,516.2 111.9,230.3 93.1,491.5 -48.7,704.5 -157.5,236.5 -432,377.1 -715.8,358.8 -287.5,-18.5 -561.1,-188.5 -725.5,-421.9 -182.1,-258.6 -222,-581.1 -246.8,-888.2 C 1448.6,1229.4 1438.3,905.301 1317.7,611.199 1216.4,364.102 1038.1,162.801 806.199,30.3008 787.699,19.6992 769,9.60156 750,0 H 403.199 c 161.199,38.1992 315.5,106.102 450.199,203.102 224.402,161.597 357.402,400 420.202,665.898 138.7,586.5 -0.5,1269.9 446.2,1749 192.5,206.5 464.3,344.1 748.2,355.3 278.7,11.1 550.3,-116.1 729.2,-328.7" /><path
         id="path50"
         style="fill:#283a7c;fill-opacity:1;fill-rule:nonzero;stroke:none"
         d="M 7464.7,1934.9 C 7374.1,1681 7177,1471.2 6917.3,1389.3 6310.5,1198.1 5738.2,1681 5131.2,1591.6 c -291,-42.9 -551.7,-234.3 -680.8,-498.3 -71.5,-146.402 -97.6,-313.101 -83.8,-474.902 13.9,-162.699 76.2,-308.296 162.8,-444.796 35.2,-55.5 74.5,-113.5004 111.9,-173.602 h -138.9 c -40.9,61 -81.7,119.102 -113.2,172.699 -161.7,275.102 -193.1,617.102 -72.1,914.201 110.4,271.3 340.4,482.8 616.2,579.1 283.5,99 586.9,46.6 869.3,-28.3 284.4,-75.4 573.9,-185.6 872.8,-170.2 275.1,14.1 508.8,164.1 634.4,409.3 118.2,230.7 113.5,503.2 -25.1,723.6 -140.5,223.5 -386.7,361.1 -634.9,432.5 -314.6,90.4 -643.9,66.5 -965.1,28.8 -340.4,-40.1 -693.6,-111 -1036.6,-63.1 -282.4,39.4 -542.6,200.9 -582.5,503.7 -41.2,312.2 138.7,591.6 357.5,795.6 232.7,216.9 520.1,385.8 686.5,665.2 74,124.3 119.9,270.1 97.9,415.8 -20.1,133 -90.8,252.5 -185.4,346.4 C 4496.4,6247 3712.2,5824.5 3156,5595 c -296.2,-122.2 -611.2,-220.5 -935.5,-191.3 -294.1,26.5 -559.5,154.3 -732.7,398 -161.8,227.7 -226,505.8 -338.5,757.7 -56.2,125.9 -124.6,248.3 -222.101,347.1 C 831.5,7003.6 712.5,7077.8 584,7122.8 c -191.301,67 -396.398,71.6 -584,10 v 124.7 c 136.301,39.1 281.102,48.8 426.602,27.4 284.199,-41.6 542.296,-201.3 703.498,-439.1 160.3,-236.4 223.6,-519.9 343.1,-776 58.5,-125.2 131,-244.1 234,-337.7 111.9,-101.6 253.9,-162.3 400.9,-192 698.8,-141.4 1306.7,390.2 1963.7,519.3 316.8,62.2 657.9,39.9 925.5,-156.6 232.6,-170.9 377.7,-440.1 321.9,-732.3 -61.4,-322 -324.3,-553.7 -566.2,-750 -244,-198 -513.8,-411.3 -566.3,-741.3 -22.5,-141.5 6.5,-292.6 108.2,-398.2 98.2,-101.9 240.1,-146.9 377.1,-165.5 164.7,-22.5 334.3,-10 499,5.4 187.6,17.5 374.1,45.2 561.3,66.2 326.1,36.6 659,50.7 976.4,-46.5 257.1,-78.8 501.8,-222.8 657.7,-446.5 154.6,-221.9 188.9,-505.1 98.3,-759.2" /><g
         transform="scale(1.26676)"
         id="g52"><path
           id="path54"
           style="fill:#f5c209;fill-opacity:1;fill-rule:nonzero;stroke:none"
           d="m 16225.8,373.473 c -101.6,227.904 -323.5,361.078 -570.5,364.63 -272.3,3.947 -530.2,-114.308 -789.6,-180.381 -135.5,-34.497 -273.4,-55.892 -413.4,-41.522 -136.5,13.972 -269,61.494 -390.9,122.751 -257.5,129.307 -478.3,316.793 -714.9,478.549 -234.6,160.33 -492.4,300.53 -769.5,369.84 -262.9,65.76 -566.7,67.65 -797.3,-92.21 C 11564.1,1245.7 11419.8,1020 11260,817.282 11045.6,545.486 10727.7,373.079 10388.9,313.24 c -329.5,-58.179 -685.09,-3.472 -962.58,190.092 -143.9,100.413 -258.92,237.454 -339.05,393.049 -45.63,88.571 -79.26,182.749 -103.41,279.299 -29.45,117.46 -38.52,238.32 -64.89,356.34 -43.34,194.19 -123.15,380.02 -256.17,529.85 -98.91,111.47 -222.85,193.81 -345.21,276.77 -109.41,74.29 -216.85,154.41 -285.85,269.9 -98.04,164.12 -115.09,373.47 -92.51,559.46 30.39,250.25 144.14,523.15 57.07,773.55 -89.28,256.64 -359.26,369.92 -613.69,374.66 -532.38,10.02 -1121.37,-355.01 -1163.2,-921.96 -9.71,-131.36 13.65,-265.72 71.83,-384.13 57.39,-116.76 150.78,-209.59 255.85,-284.19 207.3,-147.07 461.49,-220.64 655.14,-388.08 351.13,-303.77 370.78,-908.3 37.42,-1232.27 C 6910.54,785.625 6353.92,733.052 6126.17,302.108 6075.81,206.827 6050.71,104.046 6046.13,0 h 95.52 c 6.87,123.938 46.42,244.642 126.46,348.527 138.23,179.354 354.37,278.901 551.65,378.129 204.53,102.862 419.33,212.51 562.85,397.074 141.54,181.89 203.98,418.47 187.33,647.08 -16.42,226.8 -107.36,451.24 -273.77,609.51 -183.46,174.46 -429.36,254.98 -640.69,387.21 -104.2,65.13 -200.51,145.96 -262.72,253.56 -66.23,114.47 -88.73,248.35 -78.15,379.16 21.94,271.64 195.06,498.67 422.26,638.24 218.35,134.2 498.12,213.85 754.92,174.38 122.83,-18.87 241.64,-67.49 328.23,-158.91 87,-91.96 114.94,-212.35 111.15,-335.89 -4.02,-131.13 -36.39,-259.64 -60.86,-388 -23.84,-125.52 -40.02,-250.72 -30.79,-378.6 12.24,-169.02 57.55,-333.53 164.36,-467.73 84.94,-106.89 200.11,-182.44 312.05,-258.06 119.52,-80.76 236.04,-167.12 323.35,-283.64 126.23,-168.46 185.51,-375.21 214.8,-581.01 29.21,-205.01 82.65,-403.47 190.33,-582.192 180.3,-299.346 486.43,-497.097 828.49,-558.434 338.5,-60.625 694.8,-1.104 999.2,157.568 150.3,78.31 288.8,182.75 401.9,309.137 162.8,181.957 285.9,395.811 469.7,559.611 95.2,84.71 200.9,143.6 326.2,169.57 137.6,28.58 281.5,22.18 418.6,-5.92 278.3,-56.92 535.8,-191.99 770.7,-348.05 234.5,-155.834 450.1,-340.243 698.1,-475.627 118.6,-64.81 245.2,-118.807 377.8,-146.989 134.6,-28.576 269.7,-27.944 405,-5.526 422.3,69.944 1095.9,464.966 1381.7,-63.31 60.5,-111.625 85.4,-242.27 78.2,-370.868 h 93.5 c 6.5,127.253 -15.2,255.77 -67.7,373.473" /></g><g
         transform="scale(1.34969)"
         id="g56"><path
           id="path58"
           style="fill:#61ccee;fill-opacity:1;fill-rule:nonzero;stroke:none"
           d="m 15179.9,1504.86 c -106.8,-263.17 0.6,-573.685 227.5,-736.092 227.4,-162.927 515,-194.488 779.8,-258.282 37.6,-9.038 75.3,-18.893 112.8,-29.931 v -92.171 c -106.3,31.787 -215.8,54.384 -318.6,76.389 -271.6,58.234 -570.7,131.213 -758.2,353.266 -182.4,216.121 -230.1,531.901 -95.2,784.321 63.2,118.11 163,218.87 281.7,281.25 141.1,74.17 298,82.76 454.3,72.09 126.7,-8.59 291.2,-29.11 436,-5.11 v -89.65 c -144.4,-24.08 -290.1,-4.07 -436,5.86 -151.8,10.29 -303.7,4 -437.5,-75.65 -109.7,-65.28 -198.5,-167.82 -246.6,-286.29" /></g></g></g></svg>