<?xml version="1.0" standalone="no"?>
<!DOCTYPE svg PUBLIC "-//W3C//DTD SVG 20010904//EN"
 "http://www.w3.org/TR/2001/REC-SVG-20010904/DTD/svg10.dtd">
<svg version="1.0" xmlns="http://www.w3.org/2000/svg"
 width="4000.000000pt" height="629.000000pt" viewBox="0 0 4000.000000 629.000000"
 preserveAspectRatio="xMidYMid meet">

<g transform="translate(0.000000,629.000000) scale(0.100000,-0.100000)"
fill="#000000" stroke="none">
<path d="M5640 5864 c-36 -7 -73 -10 -83 -8 -10 3 -26 -1 -35 -9 -11 -10 -50
-17 -117 -22 -55 -3 -138 -16 -184 -27 -75 -18 -91 -19 -137 -8 -65 16 -140 9
-219 -20 -33 -11 -81 -26 -107 -31 -26 -5 -73 -21 -105 -35 -32 -15 -111 -43
-176 -65 l-119 -38 -51 19 c-29 11 -53 20 -54 20 -1 0 -25 -20 -53 -45 -50
-44 -52 -45 -122 -45 -81 0 -147 -22 -288 -94 -47 -24 -108 -51 -136 -60 -29
-9 -60 -26 -69 -36 -14 -15 -31 -20 -71 -20 -51 0 -53 -1 -71 -37 -17 -36 -22
-39 -83 -50 -36 -7 -85 -12 -110 -13 -57 -1 -117 -28 -172 -78 -55 -50 -111
-78 -173 -87 -82 -11 -85 -13 -85 -50 0 -44 -25 -59 -70 -44 -27 10 -38 8 -68
-9 -21 -11 -84 -39 -142 -61 -58 -23 -125 -57 -150 -77 -33 -26 -50 -34 -68
-29 -32 8 -62 -20 -62 -58 l0 -29 -53 6 c-48 6 -55 5 -77 -19 -46 -48 -86 -67
-129 -60 -51 8 -105 -19 -181 -90 -30 -29 -67 -55 -82 -59 -14 -3 -50 -27 -80
-52 -56 -49 -144 -104 -166 -104 -7 0 -48 -16 -90 -35 -56 -26 -96 -54 -147
-104 -38 -37 -86 -78 -105 -91 -19 -13 -57 -45 -85 -71 -27 -27 -86 -68 -129
-91 -44 -24 -82 -50 -86 -58 -39 -85 -64 -123 -114 -172 -52 -51 -60 -64 -67
-109 -5 -28 -15 -59 -24 -69 -8 -9 -15 -23 -15 -30 0 -8 -12 -27 -27 -42 -23
-25 -26 -32 -15 -48 16 -26 15 -50 -4 -123 l-16 -61 51 -106 c29 -58 54 -123
57 -145 10 -78 14 -84 74 -126 33 -23 60 -44 60 -46 0 -2 -9 -21 -20 -42 l-19
-39 57 -65 c67 -76 110 -113 145 -126 17 -7 28 -20 32 -38 14 -66 21 -78 60
-96 103 -45 111 -59 75 -141 -11 -26 -18 -51 -15 -56 3 -4 125 -11 273 -15
l268 -7 114 52 c148 68 222 110 356 203 149 104 186 132 273 207 84 72 127 93
436 221 110 45 218 94 240 110 70 49 106 66 265 119 85 29 222 83 303 122 82
38 198 89 258 114 61 25 185 79 277 121 92 42 201 88 242 103 92 34 156 59
240 98 36 16 127 51 202 76 75 25 156 59 180 74 56 38 154 76 274 107 52 14
108 32 122 39 38 19 236 82 367 117 121 32 191 37 220 15 19 -13 19 -15 3 -33
-16 -17 -16 -21 -2 -35 14 -14 12 -18 -28 -39 -34 -19 -44 -30 -46 -54 -5 -59
-12 -71 -54 -101 -32 -23 -57 -55 -98 -130 -99 -182 -140 -266 -140 -291 0
-35 -15 -60 -80 -129 -50 -54 -60 -71 -78 -140 -12 -44 -26 -122 -32 -174 -24
-223 -24 -233 -2 -306 11 -38 23 -104 26 -146 8 -105 31 -167 156 -423 104
-214 180 -395 180 -432 0 -10 21 -52 46 -93 50 -80 63 -130 46 -179 -13 -37
-7 -38 60 -14 26 9 50 14 53 11 12 -11 -28 -109 -52 -127 -23 -19 -23 -20 -4
-26 31 -10 61 -54 61 -90 0 -23 6 -35 21 -41 16 -8 32 -43 66 -144 42 -128 47
-138 101 -192 31 -32 77 -67 102 -79 58 -27 155 -97 200 -143 24 -26 52 -42
90 -52 30 -9 120 -38 200 -64 181 -61 281 -76 605 -90 405 -18 509 -27 560
-50 52 -24 65 -25 91 -5 27 20 61 18 100 -6 29 -18 38 -19 76 -8 24 6 55 20
69 30 19 13 42 18 80 17 87 -2 249 19 317 41 46 15 68 18 88 11 42 -16 62 -12
119 26 52 35 56 36 99 25 71 -18 115 -13 181 19 33 16 96 37 140 45 44 9 115
28 158 42 77 25 80 25 176 11 98 -14 98 -14 132 10 55 38 122 70 165 78 21 4
76 22 122 41 46 18 91 33 100 33 10 0 35 10 57 21 31 17 66 23 160 29 107 6
129 11 200 42 44 19 105 41 135 48 30 7 79 23 108 36 29 13 79 28 113 35 36 7
76 24 100 41 37 26 44 28 69 18 25 -10 40 -7 117 23 96 38 245 72 362 82 41 4
97 15 125 26 37 15 62 19 96 14 39 -5 49 -3 65 15 47 52 100 72 215 80 84 7
115 13 137 29 17 12 78 29 163 46 164 31 287 67 360 106 63 33 77 35 108 13
21 -14 27 -14 70 1 176 63 178 64 221 54 23 -5 46 -7 50 -4 5 2 17 34 26 69
20 75 11 71 210 82 74 4 142 14 178 25 83 28 171 46 254 54 l72 7 16 48 16 47
102 5 c89 5 123 13 277 63 237 79 226 74 266 106 22 17 53 30 82 34 139 19
484 112 662 178 l95 35 -2 40 -2 39 83 7 c45 3 125 17 177 31 52 14 144 36
204 51 114 27 282 85 324 112 13 9 78 26 145 38 179 32 435 93 465 110 14 8
41 26 59 39 18 13 59 29 90 35 31 6 95 20 142 31 47 10 153 23 235 29 276 20
359 29 444 50 45 12 135 29 200 39 l116 17 68 -44 c37 -24 100 -58 140 -76 54
-25 89 -50 139 -102 37 -38 76 -77 87 -86 11 -9 25 -36 31 -59 14 -49 39 -90
112 -181 29 -37 75 -105 101 -152 l47 -84 70 -21 c63 -20 73 -26 109 -75 49
-66 133 -139 192 -165 47 -22 110 -26 172 -12 31 8 45 6 72 -10 18 -11 77 -31
131 -45 91 -23 111 -24 239 -18 131 5 148 4 255 -22 142 -34 315 -38 420 -10
36 10 121 22 190 26 126 8 158 15 354 76 59 18 143 38 185 43 94 12 193 33
336 70 61 16 130 32 155 36 25 4 115 29 200 55 85 27 295 90 465 140 171 50
379 113 463 141 85 27 195 56 245 65 51 9 124 24 162 34 39 11 133 31 210 45
184 34 310 59 472 96 73 16 170 34 215 40 46 6 127 19 181 30 54 10 178 26
275 35 97 8 229 27 292 40 156 34 696 113 850 125 69 5 265 18 435 29 361 24
462 35 529 57 42 13 56 14 103 2 46 -11 65 -10 116 2 34 8 112 15 172 17 281
6 353 10 395 20 25 6 77 12 115 12 39 0 86 5 105 10 19 6 73 13 120 16 47 2
129 9 184 14 131 13 250 13 357 -2 81 -10 90 -10 116 8 26 18 53 19 433 21
608 4 681 7 725 21 36 12 50 11 125 -8 135 -34 242 -37 328 -10 56 18 82 21
119 15 27 -4 78 -8 115 -9 36 0 70 -4 74 -9 4 -4 17 -1 29 7 17 12 68 12 305
5 157 -5 331 -14 388 -20 91 -10 105 -9 121 5 12 11 27 14 49 10 19 -4 48 0
75 11 42 16 50 16 127 0 93 -19 137 -17 335 14 148 24 156 24 425 -9 171 -21
721 -4 854 27 60 13 85 14 190 3 81 -8 184 -10 311 -6 615 21 662 24 720 40
85 22 136 20 208 -10 61 -26 64 -26 197 -18 173 11 305 8 365 -10 36 -11 61
-12 108 -5 34 6 274 11 532 12 441 2 472 1 504 -17 26 -14 44 -16 75 -11 23 4
142 6 265 5 123 -1 461 4 750 11 430 10 541 10 606 -1 153 -24 201 -27 307
-19 73 6 129 17 174 34 66 25 67 25 178 11 238 -31 257 -31 314 -2 28 14 76
46 106 71 31 25 62 45 71 45 17 0 41 -34 50 -73 4 -15 12 -30 18 -34 10 -6 41
25 49 48 2 7 23 2 56 -15 28 -14 58 -26 67 -26 22 0 18 38 -6 51 -28 14 -70
108 -78 173 l-6 51 -76 -3 c-83 -4 -129 11 -149 49 -14 25 2 78 30 104 18 17
20 16 29 -6 5 -13 12 -32 15 -41 7 -24 31 -23 74 4 l34 21 -78 72 -79 72 0 59
c0 33 4 80 8 105 l8 45 -121 14 c-94 10 -135 10 -190 1 -90 -14 -119 -3 -163
64 -34 53 -67 76 -98 68 -10 -3 -44 -27 -74 -54 -31 -27 -60 -49 -66 -49 -5 0
-18 9 -30 21 -16 16 -18 23 -8 35 6 8 17 14 24 14 7 0 18 6 24 14 18 21 -11
44 -66 52 -38 6 -49 4 -60 -12 -7 -10 -13 -26 -13 -36 0 -19 -15 -24 -102 -32
-62 -5 -70 2 -43 38 23 30 18 36 -27 36 -24 0 -61 5 -83 11 -87 22 -249 34
-370 28 -33 -2 -143 5 -245 16 -253 26 -244 26 -248 -7 -3 -26 -6 -28 -52 -28
-60 0 -97 13 -121 44 -34 44 -231 47 -244 5 -8 -25 -20 -24 -186 16 -79 19
-190 42 -245 51 -95 16 -107 16 -168 0 -89 -22 -151 -20 -306 9 -167 31 -245
32 -327 3 l-62 -23 -33 20 c-29 17 -49 20 -155 18 -68 0 -155 -7 -193 -13 -60
-10 -86 -9 -171 6 -73 13 -108 15 -132 7 -22 -6 -55 -6 -101 0 -49 8 -116 7
-230 -1 -89 -7 -204 -9 -256 -6 -66 4 -128 1 -203 -10 -138 -21 -149 -20 -178
5 -18 15 -32 19 -54 14 -78 -16 -183 -24 -231 -19 -37 5 -54 3 -54 -5 0 -8
-67 -11 -238 -11 -183 0 -250 -3 -288 -15 -63 -19 -125 -19 -171 0 -31 13 -38
13 -52 1 -12 -10 -61 -15 -191 -19 -125 -3 -187 -9 -217 -20 -41 -15 -47 -15
-121 7 l-78 24 -400 -7 c-300 -6 -406 -11 -427 -21 -21 -10 -45 -11 -115 -3
-99 12 -264 2 -377 -24 -38 -8 -86 -14 -105 -13 -50 5 -105 3 -187 -5 -67 -7
-75 -6 -119 20 -44 26 -49 27 -106 15 -33 -6 -86 -20 -118 -30 -67 -22 -96
-17 -107 16 l-8 23 -44 -29 c-47 -32 -64 -35 -126 -20 -22 5 -150 14 -285 20
-135 5 -259 12 -275 16 -28 5 -32 2 -45 -28 -12 -26 -22 -34 -48 -36 -18 -2
-44 3 -57 12 -38 25 -106 28 -445 17 -269 -8 -333 -12 -369 -27 -37 -15 -50
-15 -90 -5 -25 6 -72 16 -104 21 -32 5 -71 19 -87 30 -17 12 -34 20 -39 18 -5
-2 -27 -27 -50 -56 -28 -35 -49 -52 -64 -52 -12 0 -72 11 -132 25 -144 33
-146 32 -138 -5 l6 -30 -52 34 c-73 50 -107 54 -194 23 -157 -54 -293 -58
-455 -11 l-83 24 -29 -22 c-26 -19 -48 -23 -168 -28 -75 -4 -149 -13 -163 -19
-19 -9 -36 -10 -62 -3 -27 8 -48 7 -84 -4 -27 -9 -123 -19 -223 -24 l-175 -9
-35 -39 c-32 -36 -38 -38 -73 -32 -20 4 -153 6 -295 4 -393 -3 -551 -17 -626
-56 -34 -18 -65 -22 -191 -28 -137 -5 -155 -8 -202 -33 -58 -30 -89 -33 -174
-15 -54 11 -61 10 -116 -15 -51 -23 -82 -28 -209 -37 -82 -5 -168 -15 -191
-21 -42 -11 -101 -55 -89 -66 3 -4 43 -1 88 6 89 14 143 12 143 -4 0 -13 -185
-43 -283 -47 -67 -2 -75 0 -91 21 -24 31 -51 24 -114 -28 -53 -44 -77 -44 -77
-1 0 37 -13 44 -53 31 -19 -6 -72 -18 -119 -25 -46 -8 -107 -25 -134 -39 -62
-31 -83 -36 -182 -42 -44 -3 -97 -13 -119 -22 -72 -30 -138 -43 -226 -43 -78
0 -96 -4 -152 -31 -36 -17 -93 -35 -127 -39 -35 -5 -83 -15 -107 -24 -24 -9
-53 -13 -66 -10 -13 3 -39 -3 -61 -14 -22 -11 -57 -25 -79 -32 -22 -7 -82 -30
-133 -52 -89 -39 -95 -40 -132 -28 -24 8 -58 10 -87 7 -26 -4 -77 -11 -114
-16 -36 -5 -84 -18 -108 -30 -33 -17 -52 -21 -86 -15 -37 5 -59 0 -142 -34
-154 -63 -339 -115 -382 -107 -20 3 -70 9 -111 14 -67 7 -77 5 -97 -12 -19
-17 -27 -19 -48 -9 -44 20 -54 15 -66 -33 -6 -25 -13 -45 -16 -45 -2 0 -15 7
-29 16 -22 15 -42 15 -217 4 -303 -20 -702 8 -768 53 -11 8 -40 42 -65 76 -31
43 -59 68 -94 86 -48 25 -65 54 -40 70 18 11 10 42 -20 76 -17 20 -40 67 -55
113 -14 43 -52 136 -85 206 -33 71 -60 133 -60 138 0 10 -74 100 -197 240 -70
79 -219 196 -300 234 -51 24 -82 31 -168 37 l-106 8 -42 40 -42 40 -260 11
c-209 9 -285 17 -385 37 -97 21 -173 28 -340 35 -118 5 -240 12 -271 15 -38 5
-86 2 -145 -9 -49 -9 -125 -15 -169 -14 -159 4 -265 -9 -329 -38 -58 -26 -62
-27 -198 -21 l-139 5 -116 -55 -115 -56 -82 12 c-114 16 -134 14 -195 -14 -29
-14 -84 -30 -121 -36 -38 -6 -85 -19 -106 -30 -21 -10 -46 -19 -55 -19 -9 0
-52 -12 -95 -26 -68 -23 -88 -26 -158 -20 -100 8 -129 -4 -136 -54 l-5 -34
-95 -17 c-52 -8 -138 -28 -190 -43 -125 -37 -233 -63 -315 -76 -37 -6 -110
-29 -163 -52 -54 -22 -122 -51 -152 -64 -45 -19 -66 -22 -112 -17 -53 5 -63 3
-151 -41 -51 -25 -99 -46 -105 -46 -7 0 -17 -9 -24 -20 -15 -23 -35 -25 -89
-8 -37 11 -41 9 -79 -21 -54 -43 -112 -68 -191 -80 -37 -6 -86 -18 -110 -26
-57 -20 -164 -45 -195 -45 -14 0 -41 -16 -64 -36 l-40 -37 -78 7 -77 7 -76
-45 c-59 -36 -90 -48 -148 -56 -86 -12 -198 -48 -282 -91 -34 -17 -98 -39
-143 -49 -126 -30 -217 -56 -259 -73 -21 -9 -74 -19 -117 -22 -59 -3 -105 -15
-185 -45 -73 -28 -132 -43 -190 -49 -67 -7 -90 -13 -118 -35 -24 -19 -43 -26
-56 -21 -14 4 -39 -8 -87 -42 -70 -50 -79 -61 -89 -105 -4 -24 -10 -28 -38
-28 -17 0 -51 9 -74 20 -34 15 -43 24 -43 44 0 18 -9 30 -30 41 -48 25 -72 19
-119 -30 -45 -48 -65 -54 -97 -30 -27 20 -36 19 -92 -16 -27 -16 -76 -37 -108
-45 -32 -9 -66 -22 -74 -29 -33 -29 -317 -108 -450 -125 -136 -18 -179 -29
-284 -77 -54 -24 -139 -53 -188 -64 -50 -11 -99 -24 -109 -29 -10 -6 -41 -10
-69 -10 -88 0 -296 -62 -422 -126 -125 -63 -253 -99 -296 -83 -17 7 -60 1
-155 -22 -73 -17 -155 -33 -184 -35 -32 -2 -63 -11 -80 -23 -24 -17 -46 -20
-148 -21 -231 -4 -255 -2 -255 18 0 9 55 103 121 207 67 105 153 244 192 310
102 174 122 201 182 245 44 32 56 48 65 83 17 67 37 111 73 169 19 29 51 85
71 125 19 40 56 95 81 123 25 28 45 61 45 73 0 30 43 118 68 141 20 17 21 25
15 110 -7 109 3 136 47 136 37 0 37 5 0 114 -16 48 -34 112 -39 142 -6 31 -19
66 -30 80 -10 13 -22 39 -25 58 -5 27 -28 54 -107 127 -96 88 -103 98 -154
203 -67 140 -103 246 -115 338 -14 107 -32 161 -57 173 -17 7 -27 29 -43 90
-25 92 -48 134 -119 224 -29 35 -61 81 -72 103 -26 50 -91 121 -146 159 -23
16 -82 42 -131 58 -49 16 -129 52 -178 80 -120 69 -152 77 -229 57 -49 -14
-70 -15 -111 -6 -36 8 -90 8 -184 1 -119 -9 -151 -7 -309 14 -331 44 -621 56
-751 29z"/>
</g>
</svg>
